<svg xmlns="http://www.w3.org/2000/svg" width="960" height="260" viewBox="0 0 960 260" role="img" aria-labelledby="title desc">
  <title id="title">asm-shader-toy logo</title>
  <desc id="desc">ASM wordmark with a pixel shader grid and colored scan beams.</desc>
  <rect width="960" height="260" rx="18" fill="#07090f"/>
  <rect x="18" y="18" width="924" height="224" rx="10" fill="#0d121b" stroke="#263142" stroke-width="2"/>

  <g transform="translate(54 48)">
    <rect x="0" y="0" width="132" height="132" fill="#131b28" stroke="#344155" stroke-width="4"/>
    <g stroke="#223047" stroke-width="2">
      <path d="M33 0v132M66 0v132M99 0v132M0 33h132M0 66h132M0 99h132"/>
    </g>
    <rect x="2" y="2" width="31" height="31" fill="#ff355f"/>
    <rect x="35" y="2" width="31" height="31" fill="#f8d74a"/>
    <rect x="68" y="2" width="31" height="31" fill="#6ee36a"/>
    <rect x="101" y="2" width="29" height="31" fill="#55a7ff"/>
    <rect x="2" y="35" width="31" height="31" fill="#2a5bd7"/>
    <rect x="35" y="35" width="31" height="31" fill="#141b28"/>
    <rect x="68" y="35" width="31" height="31" fill="#b76cff"/>
    <rect x="101" y="35" width="29" height="31" fill="#141b28"/>
    <rect x="2" y="68" width="31" height="31" fill="#141b28"/>
    <rect x="35" y="68" width="31" height="31" fill="#21c7a8"/>
    <rect x="68" y="68" width="31" height="31" fill="#141b28"/>
    <rect x="101" y="68" width="29" height="31" fill="#ff8f3d"/>
    <rect x="2" y="101" width="31" height="29" fill="#f8d74a"/>
    <rect x="35" y="101" width="31" height="29" fill="#141b28"/>
    <rect x="68" y="101" width="31" height="29" fill="#55a7ff"/>
    <rect x="101" y="101" width="29" height="29" fill="#ff355f"/>
    <path d="M156 20h86M156 66h126M156 112h74" stroke="#55a7ff" stroke-width="9" stroke-linecap="square"/>
    <path d="M156 42h122M156 88h92M156 134h140" stroke="#6ee36a" stroke-width="9" stroke-linecap="square"/>
    <path d="M156 156h88" stroke="#ff355f" stroke-width="9" stroke-linecap="square"/>
  </g>

  <text x="370" y="128" font-family="ui-monospace, SFMono-Regular, Menlo, Consolas, monospace" font-size="92" font-weight="800" fill="#f4f7ff" letter-spacing="0">ASM</text>
  <text x="374" y="174" font-family="ui-monospace, SFMono-Regular, Menlo, Consolas, monospace" font-size="30" fill="#8ea0bd" letter-spacing="0">SHADER TOY</text>
  <g fill="none" stroke-linecap="square" stroke-width="5">
    <path d="M682 70h184" stroke="#ff355f"/>
    <path d="M704 104h162" stroke="#f8d74a"/>
    <path d="M728 138h138" stroke="#6ee36a"/>
    <path d="M750 172h116" stroke="#55a7ff"/>
  </g>
  <g fill="#f4f7ff">
    <rect x="876" y="62" width="18" height="18"/>
    <rect x="876" y="96" width="18" height="18"/>
    <rect x="876" y="130" width="18" height="18"/>
    <rect x="876" y="164" width="18" height="18"/>
  </g>
</svg>
